#!OML:ASF F:\VICON\USERDATA\INSTALL\rory3\rory3.ASF
:FULLY-SPECIFIED
:DEGREES
2661
root 0.178343 17.3921 -0.767055 0.00126433 5.73803 -0.951978
lowerback -0.918494 -0.522395 0.0545809
upperback -0.774568 -0.696959 -0.22162
thorax -0.281081 -0.349198 -0.2618
lowerneck -16.0697 -11.78 -15.2383
upperneck 26.2195 -16.3121 11.9264
head 13.9312 -7.32839 4.242
rclavicle -1.8077e-015 -3.18055e-015
rhumerus -403.229 -15.0323 -425.491
rradius 131.413
rwrist 12.372
rhand -36.4102 28.6514
rfingers 7.12502
rthumb -9.50556 -1.11417
lclavicle -1.8077e-015 -3.18055e-015
lhumerus -45.5224 2.05338 85.8033
lradius 90.191
lwrist 0.497793
lhand -11.2065 17.285
lfingers 7.12502
lthumb 14.8215 46.7349
rfemur 3.41314 5.91136 20.3255
rtibia 7.69729
rfoot -9.82668 -12.5415
rtoes -11.0408
lfemur -4.84279 -17.5682 -18.329
ltibia 18.4548
lfoot -14.2644 7.46056
ltoes -20.1875
2662
root 0.175262 17.3952 -0.780836 0.100821 5.66371 -1.1583
lowerback -0.940147 -0.643937 -0.0420489
upperback -0.610472 -0.858105 0.156726
thorax -0.0946696 -0.428625 0.17666
lowerneck -16.312 -11.648 -15.1578
upperneck 26.1528 -16.0113 11.6979
head 13.8673 -7.2059 4.19169
rclavicle -4.86712e-015 -3.97569e-016
rhumerus -403.426 -14.3227 -426.036
rradius 129.574
rwrist 13.919
rhand -36.3137 27.8781
rfingers 7.12502
rthumb -9.41254 -1.8917
lclavicle -4.86712e-015 -3.97569e-016
lhumerus -45.5165 2.29029 85.8863
lradius 85.6581
lwrist -0.49148
lhand -10.0801 17.1601
lfingers 7.12502
lthumb 15.9065 46.5269
rfemur 3.25235 6.03796 20.5724
rtibia 7.58791
rfoot -9.65725 -12.5836
rtoes -10.6053
lfemur -5.12493 -17.3636 -18.0038
ltibia 18.5577
lfoot -14.2869 7.20893
ltoes -19.4991
2663
root 0.175948 17.4004 -0.803101 0.200908 5.58829 -1.46346
lowerback -0.717454 -0.727107 0.176069
upperback -0.584856 -0.969801 0.42877
thorax -0.191759 -0.48462 0.334702
lowerneck -16.3964 -11.5147 -14.9484
upperneck 26.1462 -15.7907 11.4928
head 13.8002 -7.11022 4.12167
rclavicle 1.05263e-014 -3.77691e-015
rhumerus -403.937 -13.7711 -426.57
rradius 127.463
rwrist 16.1198
rhand -36.048 27.6814
rfingers 7.12502
rthumb -9.15617 -2.09984
lclavicle 1.05263e-014 -3.77691e-015
lhumerus -45.1188 2.63765 85.7792
lradius 80.6098
lwrist -0.67868
lhand -8.45238 17.2005
lfingers 7.12502
lthumb 17.4735 46.4352
rfemur 3.11511 6.16724 20.8912
rtibia 7.36745
rfoot -9.45631 -12.56
rtoes -9.89156
lfemur -5.44615 -17.2226 -17.5776
ltibia 18.6686
lfoot -14.1838 7.11921
ltoes -19.5989
2664
root 0.180742 17.4048 -0.829215 0.300278 5.60085 -1.67805
lowerback -0.32146 -0.810511 0.467897
upperback -0.655441 -1.07819 0.613869
thorax -0.487198 -0.539629 0.366986
lowerneck -16.3759 -11.4068 -14.7881
upperneck 26.1883 -15.6347 11.3396
head 13.7544 -7.0456 4.07154
rclavicle 1.64852e-015 1.54058e-015
rhumerus -404.669 -12.9907 -427.287
rradius 125.251
rwrist 18.117
rhand -35.913 28.022
rfingers 7.12502
rthumb -9.02585 -1.76489
lclavicle 1.64852e-015 1.54058e-015
lhumerus -44.3841 3.08078 85.6719
lradius 75.2518
lwrist 0.141002
lhand -7.01967 17.987
lfingers 7.12502
lthumb 18.8519 47.0935
rfemur 2.92453 6.20986 21.1
rtibia 7.28628
rfoot -9.29988 -12.6067
rtoes -10.3413
lfemur -5.70669 -17.1365 -17.2707
ltibia 18.651
lfoot -13.9737 7.03188
ltoes -20.0301
2665
root 0.190334 17.4054 -0.83592 0.336166 5.65484 -1.59582
lowerback -0.251696 -0.909581 0.457186
upperback -0.525658 -1.21036 0.732745
thorax -0.390346 -0.605316 0.49451
lowerneck -16.5803 -11.3434 -14.6054
upperneck 26.2378 -15.5159 11.1773
head 13.7625 -6.98536 3.99603
rclavicle -6.63987e-015 -1.59028e-015
rhumerus -404.882 -12.1441 -428.275
rradius 122.891
rwrist 19.5463
rhand -35.1838 28.6941
rfingers 7.12502
rthumb -8.32212 -1.12201
lclavicle -6.63987e-015 -1.59028e-015
lhumerus -43.4338 3.70217 85.5719
lradius 69.8003
lwrist 1.46482
lhand -6.49583 19.2275
lfingers 7.12502
lthumb 19.3557 48.2842
rfemur 2.78689 6.20884 20.9696
rtibia 7.48349
rfoot -9.39943 -12.6721
rtoes -10.8227
lfemur -5.65794 -17.2438 -17.396
ltibia 18.4584
lfoot -13.8627 7.10175
ltoes -20.121
2666
root 0.212379 17.4065 -0.825729 0.40947 5.78365 -0.966306
lowerback -0.486717 -1.0248 0.107526
upperback -0.308629 -1.36685 0.613259
thorax -0.0305716 -0.683072 0.560761
lowerneck -16.7064 -11.2888 -14.4024
upperneck 26.1859 -15.4442 11.1023
head 13.7268 -6.9379 3.94373
rclavicle -4.79684e-015 -2.48481e-015
rhumerus -404.772 -11.4055 -429.385
rradius 120.329
rwrist 20.4419
rhand -34.1167 29.11
rfingers 7.12502
rthumb -7.29225 -0.744344
lclavicle -4.79684e-015 -2.48481e-015
lhumerus -42.4269 4.52344 85.2637
lradius 64.3245
lwrist 2.64841
lhand -5.83228 20.5524
lfingers 7.12502
lthumb 19.9936 49.5438
rfemur 2.62574 6.13 20.1689
rtibia 7.96874
rfoot -9.63648 -12.7958
rtoes -11.4203
lfemur -5.37639 -17.5066 -18.2498
ltibia 18.0925
lfoot -13.7264 7.26098
ltoes -19.7453
2667
root 0.229234 17.4103 -0.830995 0.617775 5.84069 -0.508906
lowerback -0.612375 -1.13174 -0.0730742
upperback -0.186358 -1.50954 0.529241
thorax 0.168576 -0.754753 0.570813
lowerneck -16.7605 -11.2087 -14.2396
upperneck 26.0056 -15.3629 11.1682
head 13.6398 -6.87839 3.95685
rclavicle 1.16501e-014 -4.96962e-016
rhumerus -404.697 -10.4135 -430.544
rradius 117.68
rwrist 21.5342
rhand -33.8061 29.5756
rfingers 7.12502
rthumb -6.9924 -0.288915
lclavicle 1.16501e-014 -4.96962e-016
lhumerus -41.1545 6.0524 84.6954
lradius 58.4519
lwrist 3.3677
lhand -4.22765 21.2456
lfingers 7.12502
lthumb 21.5353 50.0684
rfemur 2.10345 6.12245 19.5767
rtibia 8.65084
rfoot -9.87182 -12.9138
rtoes -11.9444
lfemur -5.29972 -17.5525 -18.7969
ltibia 17.5967
lfoot -13.4927 7.35382
ltoes -19.8346
2668
root 0.233375 17.4154 -0.849433 0.824818 5.79791 -0.212692
lowerback -0.527776 -1.18417 -0.220391
upperback -0.0807859 -1.57878 0.47839
thorax 0.232457 -0.789747 0.601169
lowerneck -16.8049 -11.1777 -14.0831
upperneck 25.7203 -15.3835 11.3666
head 13.5384 -6.84975 3.99992
rclavicle 4.17137e-015 -1.09332e-015
rhumerus -404.773 -9.62349 -431.558
rradius 115.044
rwrist 23.1183
rhand -33.6374 30.4744
rfingers 7.12502
rthumb -6.82956 0.604536
lclavicle 4.17137e-015 -1.09332e-015
lhumerus -39.6078 8.01774 83.921
lradius 52.1434
lwrist 3.65967
lhand -3.32996 21.5634
lfingers 7.12502
lthumb 22.3973 50.285
rfemur 1.47829 6.21324 19.2376
rtibia 9.34483
rfoot -10.1138 -12.9816
rtoes -11.763
lfemur -5.30996 -17.5609 -19.0614
ltibia 17.0759
lfoot -13.2964 7.45068
ltoes -19.8489
2669
root 0.238732 17.4183 -0.868348 0.937246 5.73529 -0.000499588
lowerback -0.371477 -1.2165 -0.232999
upperback 0.0683543 -1.62205 0.404103
thorax 0.296188 -0.811763 0.533504
lowerneck -16.857 -11.1636 -13.9004
upperneck 25.4604 -15.4622 11.6361
head 13.4644 -6.83539 4.05453
rclavicle 1.46169e-014 -4.96962e-015
rhumerus -404.909 -9.32125 -432.366
rradius 112.112
rwrist 24.6204
rhand -32.3103 29.8633
rfingers 7.12502
rthumb -5.54833 -0.0440476
lclavicle 1.46169e-014 -4.96962e-015
lhumerus -37.8111 10.4738 82.8465
lradius 45.2278
lwrist 3.23251
lhand -2.51768 21.9932
lfingers 7.12502
lthumb 23.1768 50.6189
rfemur 1.08144 6.32387 18.9813
rtibia 9.77938
rfoot -10.3058 -13.0144
rtoes -11.6716
lfemur -5.3386 -17.5275 -19.273
ltibia 16.7964
lfoot -13.0059 7.54952
ltoes -20.487
2670
root 0.245944 17.4216 -0.88874 1.10445 5.6595 0.121574
lowerback -0.263392 -1.26075 -0.180968
upperback 0.182678 -1.68149 0.386249
thorax 0.351215 -0.841646 0.486703
lowerneck -16.8872 -11.1245 -13.7473
upperneck 25.2024 -15.4902 11.8848
head 13.38 -6.80594 4.11693
rclavicle -6.03808e-015 -4.96962e-016
rhumerus -404.931 -8.96736 -433.152
rradius 108.82
rwrist 25.8601
rhand -30.6644 28.0644
rfingers 7.12502
rthumb -3.95908 -1.87856
lclavicle -6.03808e-015 -4.96962e-016
lhumerus -35.9668 13.9027 81.3395
lradius 37.7389
lwrist 1.53778
lhand -2.28908 22.0276
lfingers 7.12502
lthumb 23.3961 50.6254
rfemur 0.777973 6.44601 18.783
rtibia 9.86455
rfoot -10.2192 -13.049
rtoes -12.0224
lfemur -5.65033 -17.4594 -19.3695
ltibia 16.9313
lfoot -12.9491 7.5368
ltoes -20.689
2671
root 0.245143 17.4252 -0.923165 1.31821 5.55195 -0.0941522
lowerback 0.0399267 -1.28703 0.09389
upperback 0.212737 -1.7169 0.500975
thorax 0.20784 -0.858774 0.457197
lowerneck -16.9294 -11.1173 -13.636
upperneck 24.9274 -15.5412 12.1135
head 13.2974 -6.7929 4.17165
rclavicle -2.44132e-015 1.94809e-014
rhumerus -404.74 -8.6061 -433.9
rradius 105.46
rwrist 26.8376
rhand -29.4317 27.3688
rfingers 7.12502
rthumb -2.76863 -2.59301
lclavicle -2.44132e-015 1.94809e-014
lhumerus -34.2487 18.8758 79.0822
lradius 29.7875
lwrist -1.88612
lhand -5.23277 21.6845
lfingers 7.12502
lthumb 20.5697 50.6147
rfemur 0.311198 6.60675 19.0057
rtibia 9.93563
rfoot -10.0784 -13.0448
rtoes -11.2527
lfemur -6.08133 -17.3432 -18.9906
ltibia 16.9443
lfoot -12.7453 7.54526
ltoes -21.4248
2672
root 0.229421 17.4304 -0.98968 1.58421 5.27698 -0.970717
lowerback 0.775553 -1.23324 0.842974
upperback 0.121923 -1.63429 0.818626
thorax -0.309422 -0.817567 0.382128
lowerneck -16.9324 -11.1146 -13.5681
upperneck 24.5894 -15.6281 12.4896
head 13.2077 -6.78587 4.28366
rclavicle 1.18898e-014 4.57205e-015
rhumerus -404.368 -8.42338 -434.577
rradius 101.884
rwrist 27.1644
rhand -28.1728 27.9514
rfingers 7.12502
rthumb -1.55285 -2.02273
lclavicle 1.18898e-014 4.57205e-015
lhumerus -33.3317 27.4792 74.727
lradius 21.545
lwrist -9.65964
lhand -8.57116 21.7188
lfingers 7.12502
lthumb 17.3592 50.9636
rfemur -0.36097 6.95929 20.0375
rtibia 9.77097
rfoot -9.63169 -12.9952
rtoes -10.5467
lfemur -6.90421 -16.9421 -17.7059
ltibia 17.0761
lfoot -12.4717 7.42929
ltoes -21.9538
